<svg width="1200" height="233" viewBox="0 0 1200 233" fill="none" xmlns="http://www.w3.org/2000/svg">
<rect width="1200" height="233" fill="#E1E1E1"/>
<g clip-path="url(#clip0_0_1)">
<rect width="1200" height="2899" transform="translate(0 -2318)" fill="white"/>
<g clip-path="url(#clip1_0_1)">
<rect width="1200" height="2899" transform="translate(0 -2318)" fill="white"/>
<g filter="url(#filter0_f_0_1)">
<ellipse cx="389.369" cy="-204.192" rx="434.209" ry="303.127" transform="rotate(31.0911 389.369 -204.192)" fill="url(#paint0_radial_0_1)" fill-opacity="0.08"/>
</g>
<g filter="url(#filter1_f_0_1)">
<ellipse cx="830.005" cy="-198.659" rx="337.76" ry="235.795" transform="rotate(31.0911 830.005 -198.659)" fill="url(#paint1_radial_0_1)" fill-opacity="0.15"/>
</g>
<rect x="479" y="39" width="241" height="46" rx="4" fill="#3315F9"/>
<path d="M562.208 61.1108H560.878C560.827 60.8267 560.732 60.5767 560.593 60.3608C560.454 60.1449 560.283 59.9616 560.081 59.8111C559.88 59.6605 559.654 59.5469 559.404 59.4702C559.157 59.3935 558.894 59.3551 558.616 59.3551C558.113 59.3551 557.662 59.4815 557.265 59.7344C556.87 59.9872 556.557 60.358 556.327 60.8466C556.1 61.3352 555.986 61.9318 555.986 62.6364C555.986 63.3466 556.1 63.946 556.327 64.4347C556.557 64.9233 556.871 65.2926 557.269 65.5426C557.667 65.7926 558.114 65.9176 558.611 65.9176C558.887 65.9176 559.148 65.8807 559.395 65.8068C559.645 65.7301 559.871 65.6179 560.073 65.4702C560.275 65.3224 560.445 65.142 560.584 64.929C560.726 64.7131 560.824 64.4659 560.878 64.1875L562.208 64.1918C562.137 64.6207 561.999 65.0156 561.795 65.3764C561.593 65.7344 561.333 66.044 561.015 66.3054C560.699 66.5639 560.339 66.7642 559.932 66.9062C559.526 67.0483 559.083 67.1193 558.603 67.1193C557.847 67.1193 557.174 66.9403 556.583 66.5824C555.992 66.2216 555.526 65.706 555.185 65.0355C554.847 64.3651 554.678 63.5653 554.678 62.6364C554.678 61.7045 554.848 60.9048 555.189 60.2372C555.53 59.5668 555.996 59.0526 556.587 58.6946C557.178 58.3338 557.85 58.1534 558.603 58.1534C559.066 58.1534 559.498 58.2202 559.898 58.3537C560.302 58.4844 560.664 58.6776 560.985 58.9332C561.306 59.1861 561.572 59.4957 561.782 59.8622C561.992 60.2259 562.134 60.642 562.208 61.1108ZM571.364 62.6364C571.364 63.5682 571.194 64.3693 570.853 65.0398C570.512 65.7074 570.045 66.2216 569.451 66.5824C568.86 66.9403 568.188 67.1193 567.436 67.1193C566.68 67.1193 566.005 66.9403 565.411 66.5824C564.82 66.2216 564.355 65.706 564.014 65.0355C563.673 64.3651 563.502 63.5653 563.502 62.6364C563.502 61.7045 563.673 60.9048 564.014 60.2372C564.355 59.5668 564.82 59.0526 565.411 58.6946C566.005 58.3338 566.68 58.1534 567.436 58.1534C568.188 58.1534 568.86 58.3338 569.451 58.6946C570.045 59.0526 570.512 59.5668 570.853 60.2372C571.194 60.9048 571.364 61.7045 571.364 62.6364ZM570.061 62.6364C570.061 61.9261 569.945 61.3281 569.715 60.8423C569.488 60.3537 569.176 59.9844 568.778 59.7344C568.383 59.4815 567.936 59.3551 567.436 59.3551C566.933 59.3551 566.484 59.4815 566.089 59.7344C565.694 59.9844 565.382 60.3537 565.151 60.8423C564.924 61.3281 564.811 61.9261 564.811 62.6364C564.811 63.3466 564.924 63.946 565.151 64.4347C565.382 64.9205 565.694 65.2898 566.089 65.5426C566.484 65.7926 566.933 65.9176 567.436 65.9176C567.936 65.9176 568.383 65.7926 568.778 65.5426C569.176 65.2898 569.488 64.9205 569.715 64.4347C569.945 63.946 570.061 63.3466 570.061 62.6364ZM580.05 58.2727V67H578.84L574.404 60.5994H574.323V67H573.006V58.2727H574.225L578.665 64.6818H578.746V58.2727H580.05ZM589.552 62.6364C589.552 63.5682 589.382 64.3693 589.041 65.0398C588.7 65.7074 588.232 66.2216 587.639 66.5824C587.048 66.9403 586.376 67.1193 585.623 67.1193C584.867 67.1193 584.193 66.9403 583.599 66.5824C583.008 66.2216 582.542 65.706 582.201 65.0355C581.86 64.3651 581.69 63.5653 581.69 62.6364C581.69 61.7045 581.86 60.9048 582.201 60.2372C582.542 59.5668 583.008 59.0526 583.599 58.6946C584.193 58.3338 584.867 58.1534 585.623 58.1534C586.376 58.1534 587.048 58.3338 587.639 58.6946C588.232 59.0526 588.7 59.5668 589.041 60.2372C589.382 60.9048 589.552 61.7045 589.552 62.6364ZM588.248 62.6364C588.248 61.9261 588.133 61.3281 587.903 60.8423C587.676 60.3537 587.363 59.9844 586.965 59.7344C586.57 59.4815 586.123 59.3551 585.623 59.3551C585.12 59.3551 584.671 59.4815 584.276 59.7344C583.882 59.9844 583.569 60.3537 583.339 60.8423C583.112 61.3281 582.998 61.9261 582.998 62.6364C582.998 63.3466 583.112 63.946 583.339 64.4347C583.569 64.9205 583.882 65.2898 584.276 65.5426C584.671 65.7926 585.12 65.9176 585.623 65.9176C586.123 65.9176 586.57 65.7926 586.965 65.5426C587.363 65.2898 587.676 64.9205 587.903 64.4347C588.133 63.946 588.248 63.3466 588.248 62.6364ZM598.442 61.1108H597.113C597.062 60.8267 596.966 60.5767 596.827 60.3608C596.688 60.1449 596.518 59.9616 596.316 59.8111C596.114 59.6605 595.888 59.5469 595.638 59.4702C595.391 59.3935 595.128 59.3551 594.85 59.3551C594.347 59.3551 593.897 59.4815 593.499 59.7344C593.104 59.9872 592.792 60.358 592.562 60.8466C592.334 61.3352 592.221 61.9318 592.221 62.6364C592.221 63.3466 592.334 63.946 592.562 64.4347C592.792 64.9233 593.106 65.2926 593.503 65.5426C593.901 65.7926 594.348 65.9176 594.846 65.9176C595.121 65.9176 595.383 65.8807 595.63 65.8068C595.88 65.7301 596.106 65.6179 596.307 65.4702C596.509 65.3224 596.679 65.142 596.819 64.929C596.961 64.7131 597.059 64.4659 597.113 64.1875L598.442 64.1918C598.371 64.6207 598.233 65.0156 598.029 65.3764C597.827 65.7344 597.567 66.044 597.249 66.3054C596.934 66.5639 596.573 66.7642 596.167 66.9062C595.76 67.0483 595.317 67.1193 594.837 67.1193C594.081 67.1193 593.408 66.9403 592.817 66.5824C592.226 66.2216 591.76 65.706 591.42 65.0355C591.081 64.3651 590.912 63.5653 590.912 62.6364C590.912 61.7045 591.083 60.9048 591.424 60.2372C591.765 59.5668 592.231 59.0526 592.822 58.6946C593.412 58.3338 594.084 58.1534 594.837 58.1534C595.3 58.1534 595.732 58.2202 596.133 58.3537C596.536 58.4844 596.898 58.6776 597.219 58.9332C597.54 59.1861 597.806 59.4957 598.016 59.8622C598.226 60.2259 598.368 60.642 598.442 61.1108ZM600.018 67V58.2727H605.489V59.4062H601.335V62.0653H605.204V63.1946H601.335V65.8665H605.541V67H600.018ZM607.248 67V58.2727H610.359C611.035 58.2727 611.596 58.3892 612.042 58.6222C612.491 58.8551 612.826 59.1776 613.048 59.5895C613.27 59.9986 613.38 60.4716 613.38 61.0085C613.38 61.5426 613.268 62.0128 613.044 62.419C612.822 62.8224 612.487 63.1364 612.038 63.3608C611.592 63.5852 611.031 63.6974 610.355 63.6974H607.998V62.5639H610.236C610.662 62.5639 611.008 62.5028 611.275 62.3807C611.545 62.2585 611.743 62.081 611.868 61.848C611.993 61.6151 612.055 61.3352 612.055 61.0085C612.055 60.679 611.991 60.3935 611.863 60.152C611.738 59.9105 611.541 59.7259 611.271 59.598C611.004 59.4673 610.653 59.402 610.219 59.402H608.565V67H607.248ZM611.557 63.0625L613.713 67H612.213L610.099 63.0625H611.557ZM618.159 58.2727H619.757L622.535 65.0568H622.637L625.416 58.2727H627.014V67H625.761V60.6847H625.68L623.106 66.9872H622.066L619.492 60.6804H619.411V67H618.159V58.2727ZM629.665 67H628.268L631.408 58.2727H632.929L636.07 67H634.672L632.205 59.858H632.137L629.665 67ZM629.9 63.5824H634.434V64.6903H629.9V63.5824ZM631.643 57.3991L632.64 55.4347H633.982L632.661 57.3991H631.643ZM642.02 60.5653C641.975 60.1619 641.787 59.8494 641.458 59.6278C641.128 59.4034 640.713 59.2912 640.213 59.2912C639.855 59.2912 639.546 59.348 639.284 59.4616C639.023 59.5724 638.82 59.7259 638.675 59.9219C638.533 60.1151 638.462 60.3352 638.462 60.5824C638.462 60.7898 638.51 60.9687 638.607 61.1193C638.706 61.2699 638.835 61.3963 638.994 61.4986C639.156 61.598 639.33 61.6818 639.514 61.75C639.699 61.8153 639.877 61.8693 640.047 61.9119L640.899 62.1335C641.178 62.2017 641.463 62.294 641.756 62.4105C642.048 62.527 642.32 62.6804 642.57 62.8707C642.82 63.0611 643.021 63.2969 643.175 63.5781C643.331 63.8594 643.409 64.196 643.409 64.5881C643.409 65.0824 643.281 65.5213 643.026 65.9048C642.773 66.2884 642.405 66.5909 641.922 66.8125C641.442 67.0341 640.861 67.1449 640.179 67.1449C639.526 67.1449 638.96 67.0412 638.483 66.8338C638.006 66.6264 637.632 66.3324 637.362 65.9517C637.092 65.5682 636.943 65.1136 636.915 64.5881H638.236C638.261 64.9034 638.364 65.1662 638.543 65.3764C638.725 65.5838 638.956 65.7386 639.237 65.8409C639.521 65.9403 639.833 65.9901 640.171 65.9901C640.543 65.9901 640.874 65.9318 641.163 65.8153C641.456 65.696 641.686 65.5312 641.854 65.321C642.021 65.108 642.105 64.8594 642.105 64.5753C642.105 64.3168 642.031 64.1051 641.884 63.9403C641.739 63.7756 641.541 63.6392 641.291 63.5312C641.044 63.4233 640.764 63.3281 640.452 63.2457L639.421 62.9645C638.722 62.7741 638.168 62.4943 637.759 62.125C637.352 61.7557 637.149 61.267 637.149 60.6591C637.149 60.1562 637.286 59.7173 637.558 59.3423C637.831 58.9673 638.2 58.6761 638.666 58.4688C639.132 58.2585 639.658 58.1534 640.243 58.1534C640.834 58.1534 641.355 58.2571 641.807 58.4645C642.261 58.6719 642.619 58.9574 642.881 59.321C643.142 59.6818 643.279 60.0966 643.29 60.5653H642.02Z" fill="white"/>
</g>
</g>
<defs>
<filter id="filter0_f_0_1" x="-55.2754" y="-588.314" width="889.288" height="768.243" filterUnits="userSpaceOnUse" color-interpolation-filters="sRGB">
<feFlood flood-opacity="0" result="BackgroundImageFix"/>
<feBlend mode="normal" in="SourceGraphic" in2="BackgroundImageFix" result="shape"/>
<feGaussianBlur stdDeviation="20.55" result="effect1_foregroundBlur_0_1"/>
</filter>
<filter id="filter1_f_0_1" x="474.998" y="-506.586" width="710.013" height="615.855" filterUnits="userSpaceOnUse" color-interpolation-filters="sRGB">
<feFlood flood-opacity="0" result="BackgroundImageFix"/>
<feBlend mode="normal" in="SourceGraphic" in2="BackgroundImageFix" result="shape"/>
<feGaussianBlur stdDeviation="20.55" result="effect1_foregroundBlur_0_1"/>
</filter>
<radialGradient id="paint0_radial_0_1" cx="0" cy="0" r="1" gradientUnits="userSpaceOnUse" gradientTransform="translate(389.369 -204.192) rotate(90) scale(303.127 434.209)">
<stop stop-color="#3315F9"/>
<stop offset="1" stop-color="#3315F9" stop-opacity="0"/>
</radialGradient>
<radialGradient id="paint1_radial_0_1" cx="0" cy="0" r="1" gradientUnits="userSpaceOnUse" gradientTransform="translate(830.005 -198.659) rotate(90) scale(235.795 337.76)">
<stop stop-color="#3315F9"/>
<stop offset="1" stop-color="#3315F9" stop-opacity="0"/>
</radialGradient>
<clipPath id="clip0_0_1">
<rect width="1200" height="2899" fill="white" transform="translate(0 -2318)"/>
</clipPath>
<clipPath id="clip1_0_1">
<rect width="1200" height="2899" fill="white" transform="translate(0 -2318)"/>
</clipPath>
</defs>
</svg>
